<?xml version="1.0" encoding="UTF-8" standalone="no"?>
<svg
   xmlns:vectornator="http://vectornator.io"
   xmlns:dc="http://purl.org/dc/elements/1.1/"
   xmlns:cc="http://creativecommons.org/ns#"
   xmlns:rdf="http://www.w3.org/1999/02/22-rdf-syntax-ns#"
   xmlns:svg="http://www.w3.org/2000/svg"
   xmlns="http://www.w3.org/2000/svg"
   xmlns:sodipodi="http://sodipodi.sourceforge.net/DTD/sodipodi-0.dtd"
   xmlns:inkscape="http://www.inkscape.org/namespaces/inkscape"
   inkscape:version="1.0rc1 (09960d6, 2020-04-09)"
   height="441.67795"
   width="535.72894"
   sodipodi:docname="bf-logo2.svg"
   id="svg69"
   viewBox="0 0 535.72894 441.67795"
   version="1.1"
   xml:space="preserve"
   style="clip-rule:evenodd;fill-rule:evenodd;stroke-linecap:round;stroke-linejoin:round"><sodipodi:namedview
   inkscape:current-layer="svg69"
   inkscape:window-maximized="0"
   inkscape:window-y="0"
   inkscape:window-x="1920"
   inkscape:cy="230.80803"
   inkscape:cx="272.04995"
   inkscape:zoom="0.84863281"
   showgrid="false"
   id="namedview71"
   inkscape:window-height="1440"
   inkscape:window-width="2560"
   inkscape:pageshadow="2"
   inkscape:pageopacity="0"
   guidetolerance="10"
   gridtolerance="10"
   objecttolerance="10"
   borderopacity="1"
   bordercolor="#666666"
   pagecolor="#ffffff" />
<metadata
   id="metadata10">
<vectornator:setting
   value="0"
   key="DisplayWhiteBackground" />
<vectornator:setting
   value="1"
   key="RulersVisible" />
<vectornator:setting
   value="0"
   key="OutlineMode" />
<vectornator:setting
   value="Pixels"
   key="Units" />
<vectornator:setting
   value="0"
   key="SnapToEdges" />
<vectornator:setting
   value="1"
   key="DynamicGuides" />
<vectornator:setting
   value="0"
   key="SnapToPoints" />
<vectornator:setting
   value="0"
   key="SnapToGrid" />
<vectornator:setting
   value="1"
   key="SnapToGuides" />
<vectornator:setting
   value="1"
   key="ShowGrid" />
<vectornator:setting
   value="36"
   key="GridSpacing" />
<rdf:RDF><cc:Work
     rdf:about=""><dc:format>image/svg+xml</dc:format><dc:type
       rdf:resource="http://purl.org/dc/dcmitype/StillImage" /><dc:title></dc:title></cc:Work></rdf:RDF></metadata>
<defs
   id="defs12" />


<g
   transform="translate(-239.95006,-299.28604)"
   vectornator:layerName="Layer 3"
   id="Layer 3">
<path
   inkscape:connector-curvature="0"
   id="path28"
   stroke-linejoin="round"
   opacity="1"
   stroke-linecap="butt"
   fill="#278e13"
   d="m 242.454,673.745 c 0.686,-54.459 32.445,-154.104 76.519,-120.045 43.554,33.656 64.285,-87.697 121.357,-86.977 57.397,0.724 59.199,134.413 106.875,106.241 33,-19.5 86.4,51.596 85.718,105.704 -0.765,60.67 -109.458,47.085 -211.557,42.836 -92.599,-3.853 -179.606,7.265 -178.912,-47.759 z"
   stroke-width="5"
   stroke="#000000" />
<path
   inkscape:connector-curvature="0"
   id="path30"
   stroke-linejoin="round"
   opacity="1"
   stroke-linecap="butt"
   fill="#d11010"
   d="m 293.705,588.464 c 0,-3.866 4.589,-7 10.25,-7 5.66,0 10.25,3.134 10.25,7 0,3.866 -4.59,7 -10.25,7 -5.661,0 -10.25,-3.134 -10.25,-7 z"
   stroke-width="5"
   stroke="#000000" />
<path
   inkscape:connector-curvature="0"
   id="path32"
   stroke-linejoin="round"
   opacity="1"
   stroke-linecap="butt"
   fill="#d11010"
   d="m 447.205,674.964 c 0,-3.866 4.589,-7 10.25,-7 5.66,0 10.25,3.134 10.25,7 0,3.866 -4.59,7 -10.25,7 -5.661,0 -10.25,-3.134 -10.25,-7 z"
   stroke-width="5"
   stroke="#000000" />
<path
   inkscape:connector-curvature="0"
   id="path34"
   stroke-linejoin="round"
   opacity="1"
   stroke-linecap="butt"
   fill="#d11010"
   d="m 366.205,642.464 c 0,-3.866 4.589,-7 10.25,-7 5.66,0 10.25,3.134 10.25,7 0,3.866 -4.59,7 -10.25,7 -5.661,0 -10.25,-3.134 -10.25,-7 z"
   stroke-width="5"
   stroke="#000000" />
<path
   inkscape:connector-curvature="0"
   id="path36"
   stroke-linejoin="round"
   opacity="1"
   stroke-linecap="butt"
   fill="#d11010"
   d="m 554.205,680.964 c 0,-3.866 4.589,-7 10.25,-7 5.66,0 10.25,3.134 10.25,7 0,3.866 -4.59,7 -10.25,7 -5.661,0 -10.25,-3.134 -10.25,-7 z"
   stroke-width="5"
   stroke="#000000" />
<path
   inkscape:connector-curvature="0"
   id="path38"
   stroke-linejoin="round"
   opacity="1"
   stroke-linecap="butt"
   fill="#d11010"
   d="m 271.205,658.964 c 0,-3.866 4.589,-7 10.25,-7 5.66,0 10.25,3.134 10.25,7 0,3.866 -4.59,7 -10.25,7 -5.661,0 -10.25,-3.134 -10.25,-7 z"
   stroke-width="5"
   stroke="#000000" />
<path
   inkscape:connector-curvature="0"
   id="path40"
   stroke-linejoin="round"
   opacity="1"
   stroke-linecap="butt"
   fill="#d11010"
   d="m 466.205,596.464 c 0,-3.866 4.589,-7 10.25,-7 5.66,0 10.25,3.134 10.25,7 0,3.866 -4.59,7 -10.25,7 -5.661,0 -10.25,-3.134 -10.25,-7 z"
   stroke-width="5"
   stroke="#000000" />
<path
   inkscape:connector-curvature="0"
   id="path42"
   stroke-linejoin="round"
   opacity="1"
   stroke-linecap="butt"
   fill="#d11010"
   d="m 552.205,606.964 c 0,-3.866 4.589,-7 10.25,-7 5.66,0 10.25,3.134 10.25,7 0,3.866 -4.59,7 -10.25,7 -5.661,0 -10.25,-3.134 -10.25,-7 z"
   stroke-width="5"
   stroke="#000000" />
<path
   inkscape:connector-curvature="0"
   id="path44"
   stroke-linejoin="round"
   opacity="1"
   stroke-linecap="butt"
   fill="#d11010"
   d="m 425.705,527.464 c 0,-3.866 4.589,-7 10.25,-7 5.66,0 10.25,3.134 10.25,7 0,3.866 -4.59,7 -10.25,7 -5.661,0 -10.25,-3.134 -10.25,-7 z"
   stroke-width="5"
   stroke="#000000" />
</g>
<g
   transform="translate(-239.95006,-299.28604)"
   vectornator:layerName="Layer 4"
   id="Layer 4">
<path
   inkscape:connector-curvature="0"
   id="path47"
   stroke-linejoin="round"
   opacity="1"
   stroke-linecap="butt"
   fill="#6a582e"
   d="m 497.062,575.459 c -1.618,0 -2.663,1.433 -1.902,2.613 0.034,0.053 0.622,0.958 0.857,1.351 0.676,1.13 1.409,2.452 2.223,3.942 2.331,4.265 4.68,9.043 6.857,14.241 6.212,14.833 9.938,29.966 9.938,44.472 0,2.092 -0.086,4.226 -0.241,6.401 -0.919,12.861 -4.436,26.666 -9.723,40.596 -2.107,5.551 -4.36,10.717 -6.616,15.437 -3.336,2.668 -5.25,5.548 -5.25,8.615 0,14.538 40.753,25.337 91.071,25.337 50.318,0 91.071,-10.799 91.071,-25.337 0,-3.108 -1.963,-6.028 -5.384,-8.726 -1.982,-4.628 -3.961,-9.669 -5.812,-15.104 -4.82,-14.153 -7.997,-28.178 -8.732,-41.261 -0.107,-1.896 -0.161,-3.77 -0.161,-5.603 0,-14.532 3.323,-29.756 8.866,-44.716 1.942,-5.242 4.028,-10.064 6.107,-14.374 0.727,-1.506 1.406,-2.844 2.009,-3.986 0.211,-0.399 0.693,-1.319 0.723,-1.374 0.668,-1.175 -0.358,-2.525 -1.928,-2.524 z"
   stroke-width="5"
   stroke="#000000" />
<path
   inkscape:connector-curvature="0"
   id="path49"
   stroke-linejoin="round"
   opacity="1"
   stroke-linecap="butt"
   fill="#e0da80"
   d="m 494.919,571.383 c 0,-13.014 39.815,-23.565 88.928,-23.565 49.114,0 88.929,10.551 88.929,23.565 0,13.015 -39.815,23.565 -88.929,23.565 -49.113,0 -88.928,-10.55 -88.928,-23.565 z"
   stroke-width="5"
   stroke="#000000" />
</g>
<g
   transform="translate(-239.95006,-299.28604)"
   vectornator:layerName="Layer 5"
   id="Layer 5">
<path
   inkscape:connector-curvature="0"
   id="path52"
   stroke-linejoin="round"
   opacity="1"
   stroke-linecap="round"
   fill="#040202"
   d="m 507.109,355.682 c -24.867,19.555 -40.634,48.015 -40.634,79.839 0,34.81 18.85,65.637 47.873,85.121 l 18.137,-19.529 c -23.479,-14.49 -38.843,-38.142 -38.843,-64.922 0,-24.202 12.543,-45.844 32.279,-60.491 z m 159.861,0.696 -18.915,20.352 c 18.973,14.625 30.981,35.807 30.981,59.461 0,25.921 -14.393,48.914 -36.612,63.505 l 18.423,19.632 c 27.904,-19.545 45.875,-49.782 45.875,-83.807 0,-31.45 -15.398,-59.609 -39.752,-79.143 z"
   stroke-width="9"
   stroke="#000000" />
<path
   inkscape:connector-curvature="0"
   id="path54"
   stroke-linejoin="round"
   opacity="1"
   stroke-linecap="round"
   fill="#040202"
   d="m 457.567,300.286 c -39.503,32.093 -64.551,78.8 -64.551,131.028 0,57.128 29.946,107.719 76.052,139.696 l 28.813,-32.049 c -37.3,-23.781 -61.707,-62.598 -61.707,-106.548 0,-39.718 19.925,-75.237 51.279,-99.275 z m 253.962,1.141 -30.05,33.402 c 30.142,24.002 49.218,58.764 49.218,97.584 0,42.54 -22.865,80.276 -58.163,104.222 l 29.267,32.218 c 44.329,-32.076 72.878,-81.7 72.878,-137.539 0,-51.614 -24.462,-97.829 -63.15,-129.887 z"
   stroke-width="2"
   stroke="#000000" />
<path
   inkscape:connector-curvature="0"
   id="path56"
   stroke-linejoin="round"
   opacity="1"
   stroke-linecap="round"
   fill="#040202"
   d="m 542.157,395.255 c -13.395,10.494 -21.889,25.765 -21.889,42.842 0,18.679 10.154,35.22 25.789,45.676 l 9.771,-10.479 c -12.649,-7.776 -20.925,-20.468 -20.925,-34.838 0,-12.986 6.757,-24.6 17.389,-32.459 z m 86.12,0.374 -10.19,10.921 c 10.221,7.847 16.689,19.214 16.689,31.906 0,13.909 -7.753,26.248 -19.723,34.077 l 9.925,10.534 c 15.032,-10.487 24.713,-26.713 24.713,-44.97 0,-16.876 -8.295,-31.987 -21.414,-42.468 z"
   stroke-width="9"
   stroke="#000000" />
<path
   inkscape:connector-curvature="0"
   id="path58"
   stroke-linejoin="round"
   opacity="1"
   stroke-linecap="round"
   fill="#040202"
   d="m 563.461,435.648 c 0,-10.348 9.066,-18.737 20.248,-18.737 11.183,0 20.248,8.389 20.248,18.737 0,10.348 -9.065,18.736 -20.248,18.736 -11.182,0 -20.248,-8.388 -20.248,-18.736 z"
   stroke-width="9"
   stroke="#000000" />
<path
   inkscape:connector-curvature="0"
   id="path60"
   stroke-linejoin="round"
   opacity="1"
   stroke-linecap="butt"
   fill="#000000"
   d="m 511.234,610.584 c 3.141,-4.431 6.366,-8.719 9.265,-13.291 0.353,-0.555 3.707,-6.035 3.899,-5.794 2.218,2.775 1.87,23.662 3.598,29.227 0.579,1.868 4.713,15.315 6.528,14.454 4.917,-2.332 9.317,-32.525 16.51,-38.654 1.083,-0.923 1.715,12.441 1.718,13.455 0.022,7.57 0.894,22.487 9.606,26.744 0.25,0.122 -0.252,-0.574 -0.086,-0.788 2.022,-2.604 3.517,-5.464 5.321,-8.241 5.055,-7.784 9.917,-15.477 13.913,-23.793 0.351,-0.732 2.105,-6.775 3.683,-6.711 1.84,0.075 0.45,0.445 1.262,1.22 2.476,2.361 2.057,19.344 3.359,24.644 1.068,4.348 2.416,8.353 4.569,12.31 0.793,1.457 4.449,3.856 2.657,3.622 -0.799,-0.105 0.944,-1.224 1.428,-1.827 0.508,-0.635 2.042,-2.722 2.42,-3.263 1.527,-2.185 2.809,-4.176 4.066,-6.488 4.349,-7.997 9.573,-15.331 14.308,-23.103 1.086,-1.782 2.53,-4.29 3.338,-6.213 0.416,-0.986 2.036,-3.243 0.917,-3.063 -0.175,0.028 -0.266,0.419 -0.104,0.489 2.621,1.134 1.465,0.759 2.087,3.733 0.781,3.73 0.511,7.898 0.481,11.692 -0.028,3.563 -1.142,23.643 2.824,25.211 0.36,0.143 4.19,-8.757 4.48,-9.4 4.011,-8.899 6.394,-18.406 10.061,-27.435 1.045,-2.573 1.978,-5.187 2.537,-7.879 0.119,-0.572 1.328,-1.406 0.742,-1.605 -0.12,-0.041 0.056,-0.286 0.18,-0.314 3.522,-0.793 2.565,6.697 2.563,8.166 -0.008,6.846 -0.521,13.68 -0.852,20.524 -0.113,2.346 -0.445,4.689 -0.462,7.038 -0.007,0.935 -0.06,3.737 0.029,2.805 0.265,-2.777 9.798,-10.855 13.277,-14.289 l 0.262,0.14 c -0.618,2.869 -12.928,19.349 -15.638,14.149 -2.125,-4.078 1.277,-22.851 1.297,-28.198 0.01,-2.466 -0.103,-4.859 -0.28,-7.305 -0.064,-0.886 2.215,-2.755 1.377,-2.335 -1.403,0.702 -11.84,33.65 -13.413,37.21 -0.602,1.361 -3.513,10.229 -6.004,10.096 -7.221,-0.385 -4.489,-26.294 -4.813,-30.871 -0.19,-2.68 -0.39,-5.357 -0.747,-8 -0.157,-1.161 2.005,-4.263 1.711,-3.126 -3.079,11.919 -13.456,24.497 -19.974,35.123 -1.312,2.139 -4.563,9.42 -7.693,9.993 -2.574,0.472 -6.356,-7.374 -6.8,-8.495 -2.149,-5.439 -4.791,-32.701 -5.923,-33.736 -0.259,-0.237 1.275,-0.187 1.084,0.102 -2.327,3.522 -3.626,7.823 -5.457,11.579 -1.388,2.846 -16.126,27.675 -18.585,27.74 -8.877,0.237 -10.117,-27.458 -10.479,-31.414 -0.238,-2.608 -0.355,-5.14 -0.21,-7.766 0.023,-0.413 -0.759,-1.118 -0.325,-1.205 1.369,-0.274 -3.913,10.518 -5.032,13.242 -1.656,4.032 -7.676,24.529 -11.247,25.743 -3.347,1.139 -6.047,-11.512 -6.684,-13.286 -3.458,-9.635 -5.159,-21.86 -3.101,-31.284 0.314,-1.436 -1.607,2.52 -2.319,3.826 -0.627,1.15 -1.382,2.253 -2.085,3.366 -2.582,4.087 -5.702,7.835 -8.532,11.768"
   stroke-width="2"
   stroke="#000000" />
<path
   inkscape:connector-curvature="0"
   id="path62"
   stroke-linejoin="round"
   opacity="1"
   stroke-linecap="butt"
   fill="#000000"
   d="m 504.154,698.716 c 4.358,-2.905 9.994,-9.755 14.875,-11.197 0.268,-0.079 -1.3,13.426 -1.346,14.56 -0.296,7.351 -2.978,23.808 3.537,29.202 0.185,0.153 0.087,-0.908 0.225,-1.232 1.502,-3.533 3.814,-6.679 5.932,-9.856 1.676,-2.514 19.258,-31.412 22.264,-30.674 2.162,0.532 2.19,7.588 2.449,9.097 1.658,9.668 3.113,18.757 6.987,27.896 0.585,1.381 3.134,7.37 5.719,7.025 1.339,-0.179 10.299,-28.742 13.133,-32.945 1.076,-1.596 4.286,-8.977 6.513,-7.49 1.304,0.87 1.394,5.059 1.769,6.442 2.107,7.772 7.16,32.091 14.833,36.46 1.514,0.862 5.14,-11.232 5.904,-12.917 3.103,-6.849 9.231,-26.059 13.924,-30.693 2.446,-2.416 4.277,6.593 4.588,7.553 1.014,3.128 10.385,30.8 13.333,30.701 3.192,-0.108 6.926,-16.023 7.334,-17.78 0.975,-4.191 1.866,-8.405 2.858,-12.591 0.575,-2.425 1.411,-5.622 2.33,-8.056 6.932,-18.372 8.185,-1.321 15.169,9.274 2.382,3.613 5.864,6.528 8.177,9.815 l -0.014,0.025 c -12.326,-8.317 -13.402,-19.81 -18.401,-27.637 -0.484,-0.759 -0.468,1.74 -0.732,2.601 -1.088,3.536 0.298,0.18 -1.43,4.18 -1.452,3.363 -2.479,6.606 -3.33,10.202 -1.065,4.496 -5.827,31.559 -12.308,31.745 -4.742,0.136 -13.022,-25.984 -14.009,-29.34 -0.77,-2.621 -2.482,-9.394 -2.498,-9.331 -2.945,11.446 -10.136,22.806 -14.799,33.717 -0.955,2.235 -2.334,10.644 -5.74,10.366 -7.434,-0.606 -13.995,-27.063 -15.38,-32.958 -0.068,-0.287 -2.912,-10.447 -2.907,-10.449 0.407,-0.108 1.535,-0.685 1.133,-0.559 -5.812,1.817 -12.762,28.828 -14.397,33.523 -0.627,1.799 -2.699,8.919 -6.174,7.707 -9.379,-3.274 -11.231,-23.276 -12.463,-31.193 -0.511,-3.276 -0.459,-6.904 -1.215,-10.107 -0.233,-0.987 1.01,-3.592 0.161,-3.038 -9.66,6.304 -15.332,21.009 -21.51,30.276 -0.726,1.089 -5.755,11.327 -7.348,11.419 -7.067,0.408 -4.535,-31.802 -4.132,-35.655 0.119,-1.132 0.199,-7.788 1.541,-8.459 1.804,-0.902 -3.201,2.75 -3.929,3.328 -3.395,2.693 -6.702,5.219 -10.412,7.472"
   stroke-width="2"
   stroke="#000000" />
<path
   inkscape:connector-curvature="0"
   id="path64"
   stroke-linejoin="round"
   opacity="1"
   stroke-linecap="butt"
   fill="#000000"
   d="m 511.974,681.843 c 29.216,17.618 73.346,12.513 107.132,9.4 10.486,-0.966 20.711,-4.688 30.384,-8.004 2.486,-0.852 14.226,-7.062 15.209,-5.116 v 1.078 c 1.271,-0.049 -4.554,3.14 -5.386,3.527 -2.839,1.317 -6.015,2.017 -8.999,2.983 -10.955,3.543 -21.494,6.178 -32.964,7.968 -27.081,4.227 -83.407,6.865 -105.376,-9.742"
   stroke-width="2"
   stroke="#000000" />
<path
   inkscape:connector-curvature="0"
   id="path66"
   stroke-linejoin="round"
   opacity="1"
   stroke-linecap="butt"
   fill="#000000"
   d="m 520.902,632.055 c 29.491,4.907 80.458,10.249 108.735,3.046 10.114,-2.577 20.195,-6.994 30.12,-10.278 l 0.371,0.929 c -29.217,23.465 -84.874,12.26 -119.618,9.021 -7.063,-0.658 -13.599,0.447 -20.555,-1.456"
   stroke-width="2"
   stroke="#000000" />
</g>
</svg>
